<!-- DESCRIPTION: Three panels arranged left to right showing a timeline. PANEL 1 — "BEFORE: Star present." A meadow cross-section with dense graph nodes in the center (the star), short grass in the center, tall on sides, spacetime surface dips. PANEL 2 — "AFTER: Star removed." Dense center gone, uniform density, center grass still short but growing with upward arrows, surface still dips but less. PANEL 3 — "LONG AFTER." Grass has mostly caught up, surface almost flat, faint dashed dip remains — the rune. Below: comparison of pristine patch vs former star location. -->
<svg xmlns="http://www.w3.org/2000/svg" viewBox="0 0 960 520" font-family="'DM Sans', sans-serif">
  <defs>
    <marker id="arrowUp" markerWidth="6" markerHeight="6" refX="3" refY="6" orient="auto">
      <path d="M0,6 L3,0 L6,6" fill="#1e8449" stroke="none"/>
    </marker>
    <marker id="arrowRight" markerWidth="6" markerHeight="4" refX="5" refY="2" orient="auto">
      <path d="M0,0 L6,2 L0,4" fill="#c0392b"/>
    </marker>
  </defs>

  <!-- Background -->
  <rect width="960" height="520" fill="white"/>

  <!-- Panel dividers -->
  <line x1="320" y1="20" x2="320" y2="380" stroke="#cccccc" stroke-width="1" stroke-dasharray="6,4"/>
  <line x1="640" y1="20" x2="640" y2="380" stroke="#cccccc" stroke-width="1" stroke-dasharray="6,4"/>

  <!-- ============================================ -->
  <!-- PANEL 1: BEFORE — Star present              -->
  <!-- ============================================ -->

  <text x="160" y="30" text-anchor="middle" font-size="12" fill="#1a1a2e" font-weight="700" letter-spacing="0.5">BEFORE: Star present</text>

  <!-- Spacetime surface — dips significantly in center -->
  <path d="M 15,100 Q 50,98 80,96 Q 110,95 130,120 Q 150,155 160,170 Q 170,155 190,120 Q 210,95 240,96 Q 270,98 305,100"
        fill="none" stroke="#1a1a2e" stroke-width="2.5"/>
  <text x="270" y="88" font-size="9" fill="#7a7a6a" font-style="italic">spacetime surface</text>

  <!-- Dense star cluster in center (gold nodes) -->
  <circle cx="135" cy="230" r="4" fill="#d4a017"/>
  <circle cx="145" cy="220" r="4" fill="#d4a017"/>
  <circle cx="155" cy="235" r="4" fill="#d4a017"/>
  <circle cx="165" cy="218" r="4" fill="#d4a017"/>
  <circle cx="175" cy="232" r="4" fill="#d4a017"/>
  <circle cx="185" cy="222" r="4" fill="#d4a017"/>
  <circle cx="150" cy="245" r="3.5" fill="#d4a017"/>
  <circle cx="160" cy="250" r="3.5" fill="#d4a017"/>
  <circle cx="170" cy="242" r="3.5" fill="#d4a017"/>
  <circle cx="140" cy="240" r="3" fill="#d4a017"/>
  <circle cx="180" cy="240" r="3" fill="#d4a017"/>
  <circle cx="148" cy="210" r="3" fill="#d4a017"/>
  <circle cx="162" cy="208" r="3" fill="#d4a017"/>
  <circle cx="172" cy="212" r="3" fill="#d4a017"/>
  <!-- Dense connections -->
  <line x1="135" y1="230" x2="145" y2="220" stroke="#d4a017" stroke-width="1" opacity="0.35"/>
  <line x1="145" y1="220" x2="155" y2="235" stroke="#d4a017" stroke-width="1" opacity="0.35"/>
  <line x1="155" y1="235" x2="165" y2="218" stroke="#d4a017" stroke-width="1" opacity="0.35"/>
  <line x1="165" y1="218" x2="175" y2="232" stroke="#d4a017" stroke-width="1" opacity="0.35"/>
  <line x1="175" y1="232" x2="185" y2="222" stroke="#d4a017" stroke-width="1" opacity="0.35"/>
  <line x1="135" y1="230" x2="155" y2="235" stroke="#d4a017" stroke-width="1" opacity="0.2"/>
  <line x1="145" y1="220" x2="165" y2="218" stroke="#d4a017" stroke-width="1" opacity="0.2"/>
  <line x1="155" y1="235" x2="175" y2="232" stroke="#d4a017" stroke-width="1" opacity="0.2"/>
  <line x1="165" y1="218" x2="185" y2="222" stroke="#d4a017" stroke-width="1" opacity="0.2"/>
  <line x1="140" y1="240" x2="150" y2="245" stroke="#d4a017" stroke-width="1" opacity="0.25"/>
  <line x1="150" y1="245" x2="160" y2="250" stroke="#d4a017" stroke-width="1" opacity="0.25"/>
  <line x1="160" y1="250" x2="170" y2="242" stroke="#d4a017" stroke-width="1" opacity="0.25"/>
  <line x1="170" y1="242" x2="180" y2="240" stroke="#d4a017" stroke-width="1" opacity="0.25"/>
  <line x1="148" y1="210" x2="162" y2="208" stroke="#d4a017" stroke-width="1" opacity="0.25"/>
  <line x1="162" y1="208" x2="172" y2="212" stroke="#d4a017" stroke-width="1" opacity="0.25"/>
  <line x1="148" y1="210" x2="145" y2="220" stroke="#d4a017" stroke-width="1" opacity="0.2"/>
  <line x1="172" y1="212" x2="175" y2="232" stroke="#d4a017" stroke-width="1" opacity="0.2"/>

  <text x="160" y="270" text-anchor="middle" font-size="9" fill="#d4a017" font-weight="600">STAR</text>
  <text x="160" y="282" text-anchor="middle" font-size="8" fill="#d4a017">(dense nodes)</text>

  <!-- Sparse side nodes (green) -->
  <circle cx="40" cy="225" r="4" fill="#1e8449" opacity="0.6"/>
  <circle cx="70" cy="230" r="4" fill="#1e8449" opacity="0.6"/>
  <circle cx="95" cy="222" r="4" fill="#1e8449" opacity="0.6"/>
  <line x1="40" y1="225" x2="70" y2="230" stroke="#1e8449" stroke-width="1" opacity="0.3"/>
  <line x1="70" y1="230" x2="95" y2="222" stroke="#1e8449" stroke-width="1" opacity="0.3"/>

  <circle cx="225" cy="228" r="4" fill="#1e8449" opacity="0.6"/>
  <circle cx="255" cy="222" r="4" fill="#1e8449" opacity="0.6"/>
  <circle cx="285" cy="230" r="4" fill="#1e8449" opacity="0.6"/>
  <line x1="225" y1="228" x2="255" y2="222" stroke="#1e8449" stroke-width="1" opacity="0.3"/>
  <line x1="255" y1="222" x2="285" y2="230" stroke="#1e8449" stroke-width="1" opacity="0.3"/>

  <!-- Ground line -->
  <line x1="15" y1="300" x2="305" y2="300" stroke="#7a7a6a" stroke-width="1.5" opacity="0.4"/>

  <!-- Grass — tall on sides, short in center -->
  <!-- Left tall grass -->
  <line x1="25" y1="300" x2="22" y2="260" stroke="#1e8449" stroke-width="1.5" opacity="0.5"/>
  <line x1="38" y1="300" x2="40" y2="255" stroke="#1e8449" stroke-width="1.5" opacity="0.5"/>
  <line x1="52" y1="300" x2="48" y2="258" stroke="#1e8449" stroke-width="1.5" opacity="0.5"/>
  <line x1="65" y1="300" x2="68" y2="252" stroke="#1e8449" stroke-width="1.5" opacity="0.5"/>
  <line x1="78" y1="300" x2="75" y2="256" stroke="#1e8449" stroke-width="1.5" opacity="0.5"/>
  <line x1="92" y1="300" x2="95" y2="260" stroke="#1e8449" stroke-width="1.5" opacity="0.5"/>
  <line x1="105" y1="300" x2="102" y2="262" stroke="#1e8449" stroke-width="1.5" opacity="0.5"/>

  <!-- Center short grass (stunted by mass) -->
  <line x1="125" y1="300" x2="124" y2="290" stroke="#d4a017" stroke-width="1.5" opacity="0.5"/>
  <line x1="138" y1="300" x2="140" y2="288" stroke="#d4a017" stroke-width="1.5" opacity="0.5"/>
  <line x1="150" y1="300" x2="148" y2="289" stroke="#d4a017" stroke-width="1.5" opacity="0.5"/>
  <line x1="162" y1="300" x2="164" y2="290" stroke="#d4a017" stroke-width="1.5" opacity="0.5"/>
  <line x1="175" y1="300" x2="173" y2="288" stroke="#d4a017" stroke-width="1.5" opacity="0.5"/>
  <line x1="188" y1="300" x2="190" y2="290" stroke="#d4a017" stroke-width="1.5" opacity="0.5"/>
  <line x1="200" y1="300" x2="198" y2="289" stroke="#d4a017" stroke-width="1.5" opacity="0.5"/>

  <!-- Right tall grass -->
  <line x1="218" y1="300" x2="220" y2="260" stroke="#1e8449" stroke-width="1.5" opacity="0.5"/>
  <line x1="232" y1="300" x2="228" y2="255" stroke="#1e8449" stroke-width="1.5" opacity="0.5"/>
  <line x1="245" y1="300" x2="248" y2="258" stroke="#1e8449" stroke-width="1.5" opacity="0.5"/>
  <line x1="258" y1="300" x2="255" y2="252" stroke="#1e8449" stroke-width="1.5" opacity="0.5"/>
  <line x1="272" y1="300" x2="275" y2="256" stroke="#1e8449" stroke-width="1.5" opacity="0.5"/>
  <line x1="285" y1="300" x2="282" y2="260" stroke="#1e8449" stroke-width="1.5" opacity="0.5"/>
  <line x1="298" y1="300" x2="300" y2="262" stroke="#1e8449" stroke-width="1.5" opacity="0.5"/>

  <!-- Panel 1 bottom label -->
  <text x="160" y="325" text-anchor="middle" font-size="9" fill="#7a7a6a" font-style="italic">Normal gravity picture.</text>
  <text x="160" y="338" text-anchor="middle" font-size="9" fill="#7a7a6a" font-style="italic">Dense mass = stunted growth = surface dips.</text>

  <!-- ============================================ -->
  <!-- PANEL 2: AFTER — Star removed               -->
  <!-- ============================================ -->

  <text x="480" y="30" text-anchor="middle" font-size="12" fill="#1a1a2e" font-weight="700" letter-spacing="0.5">AFTER: Star removed</text>

  <!-- Spacetime surface — still dips but less -->
  <path d="M 335,100 Q 370,98 400,97 Q 430,96 455,115 Q 470,135 480,142 Q 490,135 505,115 Q 530,96 560,97 Q 590,98 625,100"
        fill="none" stroke="#1a1a2e" stroke-width="2.5"/>

  <!-- Uniform sparse nodes (green, no dense cluster) -->
  <circle cx="355" cy="225" r="4" fill="#1e8449" opacity="0.6"/>
  <circle cx="380" cy="220" r="4" fill="#1e8449" opacity="0.6"/>
  <circle cx="405" cy="228" r="4" fill="#1e8449" opacity="0.6"/>
  <circle cx="430" cy="222" r="4" fill="#1e8449" opacity="0.6"/>
  <circle cx="455" cy="226" r="4" fill="#1e8449" opacity="0.6"/>
  <circle cx="480" cy="220" r="4" fill="#1e8449" opacity="0.6"/>
  <circle cx="505" cy="228" r="4" fill="#1e8449" opacity="0.6"/>
  <circle cx="530" cy="222" r="4" fill="#1e8449" opacity="0.6"/>
  <circle cx="555" cy="226" r="4" fill="#1e8449" opacity="0.6"/>
  <circle cx="580" cy="220" r="4" fill="#1e8449" opacity="0.6"/>
  <circle cx="605" cy="228" r="4" fill="#1e8449" opacity="0.6"/>
  <line x1="355" y1="225" x2="380" y2="220" stroke="#1e8449" stroke-width="1" opacity="0.25"/>
  <line x1="380" y1="220" x2="405" y2="228" stroke="#1e8449" stroke-width="1" opacity="0.25"/>
  <line x1="405" y1="228" x2="430" y2="222" stroke="#1e8449" stroke-width="1" opacity="0.25"/>
  <line x1="430" y1="222" x2="455" y2="226" stroke="#1e8449" stroke-width="1" opacity="0.25"/>
  <line x1="455" y1="226" x2="480" y2="220" stroke="#1e8449" stroke-width="1" opacity="0.25"/>
  <line x1="480" y1="220" x2="505" y2="228" stroke="#1e8449" stroke-width="1" opacity="0.25"/>
  <line x1="505" y1="228" x2="530" y2="222" stroke="#1e8449" stroke-width="1" opacity="0.25"/>
  <line x1="530" y1="222" x2="555" y2="226" stroke="#1e8449" stroke-width="1" opacity="0.25"/>
  <line x1="555" y1="226" x2="580" y2="220" stroke="#1e8449" stroke-width="1" opacity="0.25"/>
  <line x1="580" y1="220" x2="605" y2="228" stroke="#1e8449" stroke-width="1" opacity="0.25"/>

  <text x="480" y="245" text-anchor="middle" font-size="8" fill="#1e8449" opacity="0.7">uniform density</text>

  <!-- Ground line -->
  <line x1="335" y1="300" x2="625" y2="300" stroke="#7a7a6a" stroke-width="1.5" opacity="0.4"/>

  <!-- Grass — tall on sides, still short in center (hasn't caught up) -->
  <!-- Left tall grass -->
  <line x1="345" y1="300" x2="342" y2="260" stroke="#1e8449" stroke-width="1.5" opacity="0.5"/>
  <line x1="358" y1="300" x2="360" y2="255" stroke="#1e8449" stroke-width="1.5" opacity="0.5"/>
  <line x1="372" y1="300" x2="368" y2="258" stroke="#1e8449" stroke-width="1.5" opacity="0.5"/>
  <line x1="385" y1="300" x2="388" y2="252" stroke="#1e8449" stroke-width="1.5" opacity="0.5"/>
  <line x1="398" y1="300" x2="395" y2="256" stroke="#1e8449" stroke-width="1.5" opacity="0.5"/>
  <line x1="412" y1="300" x2="415" y2="260" stroke="#1e8449" stroke-width="1.5" opacity="0.5"/>
  <line x1="425" y1="300" x2="422" y2="262" stroke="#1e8449" stroke-width="1.5" opacity="0.5"/>

  <!-- Center short grass (still short — hasn't caught up) with upward arrows -->
  <line x1="442" y1="300" x2="440" y2="286" stroke="#1e8449" stroke-width="1.5" opacity="0.5"/>
  <line x1="455" y1="300" x2="457" y2="284" stroke="#1e8449" stroke-width="1.5" opacity="0.5"/>
  <line x1="468" y1="300" x2="466" y2="285" stroke="#1e8449" stroke-width="1.5" opacity="0.5"/>
  <line x1="480" y1="300" x2="482" y2="286" stroke="#1e8449" stroke-width="1.5" opacity="0.5"/>
  <line x1="493" y1="300" x2="491" y2="284" stroke="#1e8449" stroke-width="1.5" opacity="0.5"/>
  <line x1="506" y1="300" x2="508" y2="286" stroke="#1e8449" stroke-width="1.5" opacity="0.5"/>
  <line x1="518" y1="300" x2="516" y2="285" stroke="#1e8449" stroke-width="1.5" opacity="0.5"/>

  <!-- Upward arrows on short grass (growing at full speed now) -->
  <line x1="440" y1="282" x2="440" y2="268" stroke="#1e8449" stroke-width="1.2" marker-end="url(#arrowUp)"/>
  <line x1="457" y1="280" x2="457" y2="266" stroke="#1e8449" stroke-width="1.2" marker-end="url(#arrowUp)"/>
  <line x1="466" y1="281" x2="466" y2="267" stroke="#1e8449" stroke-width="1.2" marker-end="url(#arrowUp)"/>
  <line x1="482" y1="282" x2="482" y2="268" stroke="#1e8449" stroke-width="1.2" marker-end="url(#arrowUp)"/>
  <line x1="491" y1="280" x2="491" y2="266" stroke="#1e8449" stroke-width="1.2" marker-end="url(#arrowUp)"/>
  <line x1="508" y1="282" x2="508" y2="268" stroke="#1e8449" stroke-width="1.2" marker-end="url(#arrowUp)"/>
  <line x1="516" y1="281" x2="516" y2="267" stroke="#1e8449" stroke-width="1.2" marker-end="url(#arrowUp)"/>

  <!-- Right tall grass -->
  <line x1="535" y1="300" x2="538" y2="260" stroke="#1e8449" stroke-width="1.5" opacity="0.5"/>
  <line x1="548" y1="300" x2="545" y2="255" stroke="#1e8449" stroke-width="1.5" opacity="0.5"/>
  <line x1="562" y1="300" x2="565" y2="258" stroke="#1e8449" stroke-width="1.5" opacity="0.5"/>
  <line x1="575" y1="300" x2="572" y2="252" stroke="#1e8449" stroke-width="1.5" opacity="0.5"/>
  <line x1="588" y1="300" x2="590" y2="256" stroke="#1e8449" stroke-width="1.5" opacity="0.5"/>
  <line x1="602" y1="300" x2="598" y2="260" stroke="#1e8449" stroke-width="1.5" opacity="0.5"/>
  <line x1="615" y1="300" x2="618" y2="262" stroke="#1e8449" stroke-width="1.5" opacity="0.5"/>

  <!-- Panel 2 labels -->
  <text x="480" y="325" text-anchor="middle" font-size="9" fill="#1e8449" font-weight="600">Growth restored to C</text>
  <text x="480" y="338" text-anchor="middle" font-size="9" fill="#7a7a6a" font-style="italic">but the gap remains.</text>

  <!-- ============================================ -->
  <!-- PANEL 3: LONG AFTER                         -->
  <!-- ============================================ -->

  <text x="800" y="30" text-anchor="middle" font-size="12" fill="#1a1a2e" font-weight="700" letter-spacing="0.5">LONG AFTER</text>

  <!-- Spacetime surface — almost flat, barely visible dip -->
  <path d="M 655,100 Q 690,99 720,99 Q 750,99 775,104 Q 790,108 800,110 Q 810,108 825,104 Q 850,99 880,99 Q 910,99 945,100"
        fill="none" stroke="#1a1a2e" stroke-width="2.5"/>

  <!-- Where surface WOULD be if no star ever existed (dashed) -->
  <path d="M 655,100 Q 720,99 800,99 Q 880,99 945,100"
        fill="none" stroke="#7a7a6a" stroke-width="1.2" stroke-dasharray="4,3" opacity="0.6"/>

  <!-- Uniform sparse nodes -->
  <circle cx="675" cy="225" r="4" fill="#1e8449" opacity="0.6"/>
  <circle cx="700" cy="220" r="4" fill="#1e8449" opacity="0.6"/>
  <circle cx="725" cy="228" r="4" fill="#1e8449" opacity="0.6"/>
  <circle cx="750" cy="222" r="4" fill="#1e8449" opacity="0.6"/>
  <circle cx="775" cy="226" r="4" fill="#1e8449" opacity="0.6"/>
  <circle cx="800" cy="220" r="4" fill="#1e8449" opacity="0.6"/>
  <circle cx="825" cy="228" r="4" fill="#1e8449" opacity="0.6"/>
  <circle cx="850" cy="222" r="4" fill="#1e8449" opacity="0.6"/>
  <circle cx="875" cy="226" r="4" fill="#1e8449" opacity="0.6"/>
  <circle cx="900" cy="220" r="4" fill="#1e8449" opacity="0.6"/>
  <circle cx="925" cy="228" r="4" fill="#1e8449" opacity="0.6"/>
  <line x1="675" y1="225" x2="700" y2="220" stroke="#1e8449" stroke-width="1" opacity="0.25"/>
  <line x1="700" y1="220" x2="725" y2="228" stroke="#1e8449" stroke-width="1" opacity="0.25"/>
  <line x1="725" y1="228" x2="750" y2="222" stroke="#1e8449" stroke-width="1" opacity="0.25"/>
  <line x1="750" y1="222" x2="775" y2="226" stroke="#1e8449" stroke-width="1" opacity="0.25"/>
  <line x1="775" y1="226" x2="800" y2="220" stroke="#1e8449" stroke-width="1" opacity="0.25"/>
  <line x1="800" y1="220" x2="825" y2="228" stroke="#1e8449" stroke-width="1" opacity="0.25"/>
  <line x1="825" y1="228" x2="850" y2="222" stroke="#1e8449" stroke-width="1" opacity="0.25"/>
  <line x1="850" y1="222" x2="875" y2="226" stroke="#1e8449" stroke-width="1" opacity="0.25"/>
  <line x1="875" y1="226" x2="900" y2="220" stroke="#1e8449" stroke-width="1" opacity="0.25"/>
  <line x1="900" y1="220" x2="925" y2="228" stroke="#1e8449" stroke-width="1" opacity="0.25"/>

  <!-- Ground line -->
  <line x1="655" y1="300" x2="945" y2="300" stroke="#7a7a6a" stroke-width="1.5" opacity="0.4"/>

  <!-- Grass — nearly uniform height everywhere, center almost caught up -->
  <line x1="665" y1="300" x2="662" y2="260" stroke="#1e8449" stroke-width="1.5" opacity="0.5"/>
  <line x1="678" y1="300" x2="680" y2="255" stroke="#1e8449" stroke-width="1.5" opacity="0.5"/>
  <line x1="692" y1="300" x2="688" y2="258" stroke="#1e8449" stroke-width="1.5" opacity="0.5"/>
  <line x1="705" y1="300" x2="708" y2="255" stroke="#1e8449" stroke-width="1.5" opacity="0.5"/>
  <line x1="718" y1="300" x2="715" y2="258" stroke="#1e8449" stroke-width="1.5" opacity="0.5"/>
  <line x1="732" y1="300" x2="735" y2="260" stroke="#1e8449" stroke-width="1.5" opacity="0.5"/>
  <line x1="745" y1="300" x2="742" y2="262" stroke="#1e8449" stroke-width="1.5" opacity="0.5"/>

  <!-- Center grass — almost full height but slightly shorter -->
  <line x1="762" y1="300" x2="760" y2="264" stroke="#1e8449" stroke-width="1.5" opacity="0.5"/>
  <line x1="775" y1="300" x2="777" y2="262" stroke="#1e8449" stroke-width="1.5" opacity="0.5"/>
  <line x1="788" y1="300" x2="786" y2="265" stroke="#1e8449" stroke-width="1.5" opacity="0.5"/>
  <line x1="800" y1="300" x2="802" y2="264" stroke="#1e8449" stroke-width="1.5" opacity="0.5"/>
  <line x1="813" y1="300" x2="811" y2="263" stroke="#1e8449" stroke-width="1.5" opacity="0.5"/>
  <line x1="826" y1="300" x2="828" y2="265" stroke="#1e8449" stroke-width="1.5" opacity="0.5"/>
  <line x1="838" y1="300" x2="836" y2="264" stroke="#1e8449" stroke-width="1.5" opacity="0.5"/>

  <!-- Right grass -->
  <line x1="855" y1="300" x2="858" y2="260" stroke="#1e8449" stroke-width="1.5" opacity="0.5"/>
  <line x1="868" y1="300" x2="865" y2="255" stroke="#1e8449" stroke-width="1.5" opacity="0.5"/>
  <line x1="882" y1="300" x2="885" y2="258" stroke="#1e8449" stroke-width="1.5" opacity="0.5"/>
  <line x1="895" y1="300" x2="892" y2="255" stroke="#1e8449" stroke-width="1.5" opacity="0.5"/>
  <line x1="908" y1="300" x2="910" y2="258" stroke="#1e8449" stroke-width="1.5" opacity="0.5"/>
  <line x1="922" y1="300" x2="918" y2="260" stroke="#1e8449" stroke-width="1.5" opacity="0.5"/>
  <line x1="935" y1="300" x2="938" y2="262" stroke="#1e8449" stroke-width="1.5" opacity="0.5"/>

  <!-- Annotation: the remaining tiny dip -->
  <path d="M 830,115 Q 818,118 810,112" fill="none" stroke="#7a7a6a" stroke-width="1" opacity="0.7"/>
  <text x="835" y="118" font-size="8" fill="#7a7a6a" font-style="italic">faint dip</text>

  <!-- Label on the remaining dip -->
  <text x="800" y="145" text-anchor="middle" font-size="9" fill="#7d3c98" font-weight="600">The rune</text>
  <text x="800" y="158" text-anchor="middle" font-size="8" fill="#7d3c98" font-style="italic">a fossil of old mass</text>

  <!-- Panel 3 bottom label -->
  <text x="800" y="325" text-anchor="middle" font-size="9" fill="#7a7a6a" font-style="italic">Grass has mostly caught up.</text>
  <text x="800" y="338" text-anchor="middle" font-size="9" fill="#7a7a6a" font-style="italic">But the imprint never fully vanishes.</text>

  <!-- ============================================ -->
  <!-- BOTTOM: Comparison section                  -->
  <!-- ============================================ -->

  <rect x="140" y="365" width="680" height="140" rx="6" fill="#f5f2eb" stroke="#d5d0c0" stroke-width="1"/>

  <!-- Pristine patch -->
  <text x="180" y="392" font-size="10" fill="#7a7a6a" font-weight="600">Pristine patch (never had mass):</text>
  <line x1="420" y1="388" x2="680" y2="388" stroke="#1a1a2e" stroke-width="2"/>

  <!-- Former star location -->
  <text x="180" y="430" font-size="10" fill="#7d3c98" font-weight="600">Former star location:</text>
  <path d="M 420,426 Q 470,426 500,426 Q 530,426 545,430 Q 555,433 560,434 Q 565,433 575,430 Q 590,426 620,426 Q 650,426 680,426"
        fill="none" stroke="#7d3c98" stroke-width="2"/>

  <!-- Brace / arrow between the two lines showing the difference -->
  <line x1="560" y1="394" x2="560" y2="428" stroke="#c0392b" stroke-width="1.5" stroke-dasharray="3,2"/>
  <circle cx="560" cy="394" r="2" fill="#c0392b"/>
  <circle cx="560" cy="428" r="2" fill="#c0392b"/>

  <!-- Arrow and label -->
  <text x="580" y="416" font-size="9" fill="#c0392b" font-weight="700">difference</text>

  <!-- Bottom prediction label -->
  <rect x="320" y="455" width="320" height="36" rx="4" fill="white" stroke="#c0392b" stroke-width="1.5"/>
  <text x="480" y="472" text-anchor="middle" font-size="11" fill="#c0392b" font-weight="700">This difference is the prediction.</text>
  <text x="480" y="486" text-anchor="middle" font-size="9" fill="#7a7a6a" font-style="italic">A gravitational rune — measurable in principle.</text>

  <!-- Timeline arrow across the top -->
  <line x1="40" y1="50" x2="930" y2="50" stroke="#7a7a6a" stroke-width="1" opacity="0.4" marker-end="url(#arrowRight)"/>
  <text x="485" y="63" text-anchor="middle" font-size="9" fill="#7a7a6a" letter-spacing="2" font-weight="600">TIME</text>
</svg>
