<!-- DESCRIPTION: Whiteboard style, white background, DM Sans font. Cross-section view. TOP: A wavy line representing spacetime fabric, dipping in the center. BOTTOM: Graph structure (nodes + edges) underneath. LEFT (no mass): Sparse nodes, tall vertical growth. 4 tick layers labeled "TICK 1–4." Green nodes. Growth is tall. CENTER (mass): Dense cluster of orange/gold interconnected nodes. Only 2 tick layers in the same time. Growth is stunted. Spacetime fabric dips above. RIGHT (no mass): Same as left — sparse, tall, 4 ticks of growth. The spacetime fabric curves down over the dense region because the graph grew LESS there. Label: "Mass doesn't push spacetime down. It just grows slower. Everything else grew faster." -->
<svg xmlns="http://www.w3.org/2000/svg" viewBox="0 0 900 550" font-family="'DM Sans', sans-serif">
  <defs>
    <marker id="arrowG" markerWidth="6" markerHeight="4" refX="5" refY="2" orient="auto">
      <path d="M0,0 L6,2 L0,4" fill="#7a7a6a"/>
    </marker>
  </defs>

  <!-- Background -->
  <rect width="900" height="550" fill="white"/>

  <!-- === SPACETIME FABRIC LINE (wavy, dipping in center) === -->
  <path d="M 40,120 Q 150,115 250,110 Q 350,105 400,160 Q 450,215 500,160 Q 550,105 650,110 Q 750,115 860,120"
        fill="none" stroke="#1a1a2e" stroke-width="3" stroke-dasharray="8,4"/>
  <text x="770" y="100" font-size="11" fill="#7a7a6a" font-weight="600" text-anchor="middle" letter-spacing="1" text-transform="uppercase">SPACETIME FABRIC</text>

  <!-- === LEFT REGION: Sparse, tall growth === -->
  <!-- Tick 1 -->
  <circle cx="100" cy="380" r="7" fill="#1e8449"/>
  <circle cx="160" cy="385" r="7" fill="#1e8449"/>
  <circle cx="220" cy="378" r="7" fill="#1e8449"/>
  <line x1="100" y1="380" x2="160" y2="385" stroke="#1e8449" stroke-width="1.5" opacity="0.4"/>
  <line x1="160" y1="385" x2="220" y2="378" stroke="#1e8449" stroke-width="1.5" opacity="0.4"/>

  <!-- Tick 2 -->
  <circle cx="110" cy="320" r="7" fill="#1e8449"/>
  <circle cx="170" cy="325" r="7" fill="#1e8449"/>
  <circle cx="210" cy="318" r="7" fill="#1e8449"/>
  <line x1="100" y1="380" x2="110" y2="320" stroke="#1e8449" stroke-width="1.2" opacity="0.3"/>
  <line x1="160" y1="385" x2="170" y2="325" stroke="#1e8449" stroke-width="1.2" opacity="0.3"/>
  <line x1="220" y1="378" x2="210" y2="318" stroke="#1e8449" stroke-width="1.2" opacity="0.3"/>
  <line x1="110" y1="320" x2="170" y2="325" stroke="#1e8449" stroke-width="1.5" opacity="0.4"/>

  <!-- Tick 3 -->
  <circle cx="120" cy="250" r="7" fill="#1e8449"/>
  <circle cx="180" cy="255" r="7" fill="#1e8449"/>
  <circle cx="200" cy="248" r="7" fill="#1e8449"/>
  <line x1="110" y1="320" x2="120" y2="250" stroke="#1e8449" stroke-width="1.2" opacity="0.3"/>
  <line x1="170" y1="325" x2="180" y2="255" stroke="#1e8449" stroke-width="1.2" opacity="0.3"/>
  <line x1="210" y1="318" x2="200" y2="248" stroke="#1e8449" stroke-width="1.2" opacity="0.3"/>

  <!-- Tick 4 -->
  <circle cx="130" cy="180" r="7" fill="#1e8449"/>
  <circle cx="170" cy="185" r="7" fill="#1e8449"/>
  <circle cx="210" cy="178" r="7" fill="#1e8449"/>
  <line x1="120" y1="250" x2="130" y2="180" stroke="#1e8449" stroke-width="1.2" opacity="0.3"/>
  <line x1="180" y1="255" x2="170" y2="185" stroke="#1e8449" stroke-width="1.2" opacity="0.3"/>
  <line x1="200" y1="248" x2="210" y2="178" stroke="#1e8449" stroke-width="1.2" opacity="0.3"/>

  <!-- Left tick labels -->
  <text x="50" y="385" font-size="10" fill="#7a7a6a" font-weight="600">TICK 1</text>
  <text x="50" y="325" font-size="10" fill="#7a7a6a" font-weight="600">TICK 2</text>
  <text x="50" y="255" font-size="10" fill="#7a7a6a" font-weight="600">TICK 3</text>
  <text x="50" y="185" font-size="10" fill="#7a7a6a" font-weight="600">TICK 4</text>

  <!-- Left bracket -->
  <line x1="40" y1="170" x2="40" y2="395" stroke="#1e8449" stroke-width="2" opacity="0.5"/>
  <text x="30" y="290" font-size="11" fill="#1e8449" font-weight="600" transform="rotate(-90 30 290)" text-anchor="middle">TALL GROWTH</text>

  <!-- === CENTER REGION: Dense, stunted growth === -->
  <!-- Dense cluster — Tick 1 -->
  <circle cx="380" cy="380" r="6" fill="#d4a017"/>
  <circle cx="400" cy="375" r="6" fill="#d4a017"/>
  <circle cx="420" cy="382" r="6" fill="#d4a017"/>
  <circle cx="440" cy="378" r="6" fill="#d4a017"/>
  <circle cx="460" cy="385" r="6" fill="#d4a017"/>
  <circle cx="480" cy="380" r="6" fill="#d4a017"/>
  <circle cx="500" cy="376" r="6" fill="#d4a017"/>
  <circle cx="520" cy="383" r="6" fill="#d4a017"/>
  <circle cx="390" cy="365" r="5" fill="#d4a017"/>
  <circle cx="430" cy="368" r="5" fill="#d4a017"/>
  <circle cx="470" cy="370" r="5" fill="#d4a017"/>
  <circle cx="510" cy="367" r="5" fill="#d4a017"/>
  <!-- Dense connections tick 1 -->
  <line x1="380" y1="380" x2="400" y2="375" stroke="#d4a017" stroke-width="1" opacity="0.4"/>
  <line x1="400" y1="375" x2="420" y2="382" stroke="#d4a017" stroke-width="1" opacity="0.4"/>
  <line x1="420" y1="382" x2="440" y2="378" stroke="#d4a017" stroke-width="1" opacity="0.4"/>
  <line x1="440" y1="378" x2="460" y2="385" stroke="#d4a017" stroke-width="1" opacity="0.4"/>
  <line x1="460" y1="385" x2="480" y2="380" stroke="#d4a017" stroke-width="1" opacity="0.4"/>
  <line x1="480" y1="380" x2="500" y2="376" stroke="#d4a017" stroke-width="1" opacity="0.4"/>
  <line x1="500" y1="376" x2="520" y2="383" stroke="#d4a017" stroke-width="1" opacity="0.4"/>
  <line x1="380" y1="380" x2="420" y2="382" stroke="#d4a017" stroke-width="1" opacity="0.25"/>
  <line x1="400" y1="375" x2="440" y2="378" stroke="#d4a017" stroke-width="1" opacity="0.25"/>
  <line x1="420" y1="382" x2="460" y2="385" stroke="#d4a017" stroke-width="1" opacity="0.25"/>
  <line x1="440" y1="378" x2="480" y2="380" stroke="#d4a017" stroke-width="1" opacity="0.25"/>
  <line x1="460" y1="385" x2="500" y2="376" stroke="#d4a017" stroke-width="1" opacity="0.25"/>
  <line x1="480" y1="380" x2="520" y2="383" stroke="#d4a017" stroke-width="1" opacity="0.25"/>
  <line x1="390" y1="365" x2="430" y2="368" stroke="#d4a017" stroke-width="1" opacity="0.3"/>
  <line x1="430" y1="368" x2="470" y2="370" stroke="#d4a017" stroke-width="1" opacity="0.3"/>
  <line x1="470" y1="370" x2="510" y2="367" stroke="#d4a017" stroke-width="1" opacity="0.3"/>
  <line x1="390" y1="365" x2="400" y2="375" stroke="#d4a017" stroke-width="1" opacity="0.3"/>
  <line x1="430" y1="368" x2="440" y2="378" stroke="#d4a017" stroke-width="1" opacity="0.3"/>
  <line x1="470" y1="370" x2="480" y2="380" stroke="#d4a017" stroke-width="1" opacity="0.3"/>
  <line x1="510" y1="367" x2="520" y2="383" stroke="#d4a017" stroke-width="1" opacity="0.3"/>

  <!-- Dense cluster — Tick 2 (only gets to tick 2!) -->
  <circle cx="385" cy="310" r="6" fill="#d4a017"/>
  <circle cx="405" cy="305" r="6" fill="#d4a017"/>
  <circle cx="425" cy="312" r="6" fill="#d4a017"/>
  <circle cx="445" cy="308" r="6" fill="#d4a017"/>
  <circle cx="465" cy="315" r="6" fill="#d4a017"/>
  <circle cx="485" cy="310" r="6" fill="#d4a017"/>
  <circle cx="505" cy="306" r="6" fill="#d4a017"/>
  <circle cx="525" cy="313" r="6" fill="#d4a017"/>
  <circle cx="395" cy="295" r="5" fill="#d4a017"/>
  <circle cx="435" cy="298" r="5" fill="#d4a017"/>
  <circle cx="475" cy="300" r="5" fill="#d4a017"/>
  <circle cx="515" cy="297" r="5" fill="#d4a017"/>
  <!-- Dense connections tick 2 -->
  <line x1="385" y1="310" x2="405" y2="305" stroke="#d4a017" stroke-width="1" opacity="0.4"/>
  <line x1="405" y1="305" x2="425" y2="312" stroke="#d4a017" stroke-width="1" opacity="0.4"/>
  <line x1="425" y1="312" x2="445" y2="308" stroke="#d4a017" stroke-width="1" opacity="0.4"/>
  <line x1="445" y1="308" x2="465" y2="315" stroke="#d4a017" stroke-width="1" opacity="0.4"/>
  <line x1="465" y1="315" x2="485" y2="310" stroke="#d4a017" stroke-width="1" opacity="0.4"/>
  <line x1="485" y1="310" x2="505" y2="306" stroke="#d4a017" stroke-width="1" opacity="0.4"/>
  <line x1="505" y1="306" x2="525" y2="313" stroke="#d4a017" stroke-width="1" opacity="0.4"/>
  <line x1="385" y1="310" x2="425" y2="312" stroke="#d4a017" stroke-width="1" opacity="0.25"/>
  <line x1="405" y1="305" x2="445" y2="308" stroke="#d4a017" stroke-width="1" opacity="0.25"/>
  <line x1="425" y1="312" x2="465" y2="315" stroke="#d4a017" stroke-width="1" opacity="0.25"/>
  <line x1="445" y1="308" x2="485" y2="310" stroke="#d4a017" stroke-width="1" opacity="0.25"/>
  <line x1="395" y1="295" x2="435" y2="298" stroke="#d4a017" stroke-width="1" opacity="0.3"/>
  <line x1="435" y1="298" x2="475" y2="300" stroke="#d4a017" stroke-width="1" opacity="0.3"/>
  <line x1="475" y1="300" x2="515" y2="297" stroke="#d4a017" stroke-width="1" opacity="0.3"/>
  <!-- Vertical connections between tick 1 and 2 -->
  <line x1="380" y1="380" x2="385" y2="310" stroke="#d4a017" stroke-width="1" opacity="0.2"/>
  <line x1="400" y1="375" x2="405" y2="305" stroke="#d4a017" stroke-width="1" opacity="0.2"/>
  <line x1="420" y1="382" x2="425" y2="312" stroke="#d4a017" stroke-width="1" opacity="0.2"/>
  <line x1="440" y1="378" x2="445" y2="308" stroke="#d4a017" stroke-width="1" opacity="0.2"/>
  <line x1="460" y1="385" x2="465" y2="315" stroke="#d4a017" stroke-width="1" opacity="0.2"/>
  <line x1="480" y1="380" x2="485" y2="310" stroke="#d4a017" stroke-width="1" opacity="0.2"/>
  <line x1="500" y1="376" x2="505" y2="306" stroke="#d4a017" stroke-width="1" opacity="0.2"/>
  <line x1="520" y1="383" x2="525" y2="313" stroke="#d4a017" stroke-width="1" opacity="0.2"/>

  <!-- Center tick labels -->
  <text x="545" y="385" font-size="10" fill="#d4a017" font-weight="600">TICK 1</text>
  <text x="545" y="315" font-size="10" fill="#d4a017" font-weight="600">TICK 2</text>

  <!-- Center bracket -->
  <line x1="570" y1="290" x2="570" y2="395" stroke="#d4a017" stroke-width="2" opacity="0.5"/>
  <text x="582" y="348" font-size="11" fill="#d4a017" font-weight="600" transform="rotate(90 582 348)" text-anchor="middle">STUNTED</text>

  <!-- Center label -->
  <text x="450" y="420" font-size="12" fill="#d4a017" font-weight="700" text-anchor="middle">MASS</text>
  <text x="450" y="435" font-size="10" fill="#d4a017" text-anchor="middle">(dense region)</text>

  <!-- === RIGHT REGION: Sparse, tall growth === -->
  <!-- Tick 1 -->
  <circle cx="680" cy="382" r="7" fill="#1e8449"/>
  <circle cx="740" cy="378" r="7" fill="#1e8449"/>
  <circle cx="800" cy="385" r="7" fill="#1e8449"/>
  <line x1="680" y1="382" x2="740" y2="378" stroke="#1e8449" stroke-width="1.5" opacity="0.4"/>
  <line x1="740" y1="378" x2="800" y2="385" stroke="#1e8449" stroke-width="1.5" opacity="0.4"/>

  <!-- Tick 2 -->
  <circle cx="690" cy="322" r="7" fill="#1e8449"/>
  <circle cx="750" cy="318" r="7" fill="#1e8449"/>
  <circle cx="790" cy="325" r="7" fill="#1e8449"/>
  <line x1="680" y1="382" x2="690" y2="322" stroke="#1e8449" stroke-width="1.2" opacity="0.3"/>
  <line x1="740" y1="378" x2="750" y2="318" stroke="#1e8449" stroke-width="1.2" opacity="0.3"/>
  <line x1="800" y1="385" x2="790" y2="325" stroke="#1e8449" stroke-width="1.2" opacity="0.3"/>

  <!-- Tick 3 -->
  <circle cx="700" cy="255" r="7" fill="#1e8449"/>
  <circle cx="760" cy="250" r="7" fill="#1e8449"/>
  <circle cx="780" cy="258" r="7" fill="#1e8449"/>
  <line x1="690" y1="322" x2="700" y2="255" stroke="#1e8449" stroke-width="1.2" opacity="0.3"/>
  <line x1="750" y1="318" x2="760" y2="250" stroke="#1e8449" stroke-width="1.2" opacity="0.3"/>
  <line x1="790" y1="325" x2="780" y2="258" stroke="#1e8449" stroke-width="1.2" opacity="0.3"/>

  <!-- Tick 4 -->
  <circle cx="710" cy="182" r="7" fill="#1e8449"/>
  <circle cx="750" cy="178" r="7" fill="#1e8449"/>
  <circle cx="790" cy="185" r="7" fill="#1e8449"/>
  <line x1="700" y1="255" x2="710" y2="182" stroke="#1e8449" stroke-width="1.2" opacity="0.3"/>
  <line x1="760" y1="250" x2="750" y2="178" stroke="#1e8449" stroke-width="1.2" opacity="0.3"/>
  <line x1="780" y1="258" x2="790" y2="185" stroke="#1e8449" stroke-width="1.2" opacity="0.3"/>

  <!-- Right labels -->
  <text x="820" y="385" font-size="10" fill="#7a7a6a" font-weight="600">TICK 1</text>
  <text x="820" y="325" font-size="10" fill="#7a7a6a" font-weight="600">TICK 2</text>
  <text x="820" y="255" font-size="10" fill="#7a7a6a" font-weight="600">TICK 3</text>
  <text x="820" y="185" font-size="10" fill="#7a7a6a" font-weight="600">TICK 4</text>

  <!-- "No mass" labels -->
  <text x="160" y="420" font-size="11" fill="#1e8449" font-weight="600" text-anchor="middle">NO MASS</text>
  <text x="160" y="435" font-size="10" fill="#1e8449" text-anchor="middle">(sparse region)</text>
  <text x="740" y="420" font-size="11" fill="#1e8449" font-weight="600" text-anchor="middle">NO MASS</text>
  <text x="740" y="435" font-size="10" fill="#1e8449" text-anchor="middle">(sparse region)</text>

  <!-- === Dip annotation arrows === -->
  <path d="M 350,140 Q 370,135 380,148" fill="none" stroke="#7a7a6a" stroke-width="1.2" marker-end="url(#arrowG)"/>
  <text x="310" y="138" font-size="10" fill="#7a7a6a" font-style="italic">dip</text>

  <!-- === Bottom label === -->
  <rect x="130" y="470" width="640" height="55" rx="6" fill="#f5f2eb" stroke="#d5d0c0" stroke-width="1"/>
  <text x="450" y="492" font-size="13" fill="#1a1a1a" font-weight="600" text-anchor="middle">Mass doesn't push spacetime down.</text>
  <text x="450" y="512" font-size="13" fill="#1a1a1a" text-anchor="middle">It just grows slower. Everything else grew faster.</text>
</svg>
